<svg id="ショッピングカートの無料アイコン10" xmlns="http://www.w3.org/2000/svg" width="34.19" height="36.223" viewBox="0 0 34.19 36.223">
  <path id="パス_33" data-name="パス 33" d="M48.136,6.773a1.887,1.887,0,0,0-1.46-.692H22.1l-.837-2.874v0A3.673,3.673,0,0,0,18.515.665l-3-.644a.942.942,0,0,0-.4,1.842l3,.644a1.792,1.792,0,0,1,1.341,1.239L24.951,22.6c-.123.058-.243.121-.359.189a3.81,3.81,0,0,0-1.385,1.425,3.931,3.931,0,0,0-.481,1.814h0v.1h0a3.9,3.9,0,0,0,3.9,3.805H44.284a.942.942,0,0,0,0-1.884H26.627a2,2,0,0,1-.786-.158,2.023,2.023,0,0,1-.889-.733,1.917,1.917,0,0,1,.088-2.3,1.951,1.951,0,0,1,.519-.446,2.394,2.394,0,0,1,.73-.281L44.037,21.24a2.827,2.827,0,0,0,2.316-2.227L48.524,8.342h0a1.924,1.924,0,0,0,.037-.375A1.887,1.887,0,0,0,48.136,6.773Zm-3.63,11.865a.942.942,0,0,1-.772.743l-16.956,2.76L22.652,7.965H46.677Z" transform="translate(-14.372 0)" fill="#232215"/>
  <path id="パス_34" data-name="パス 34" d="M165.159,438.946a2.6,2.6,0,1,0,.941,1.144A2.6,2.6,0,0,0,165.159,438.946Zm-.488,2.564a1.056,1.056,0,0,1-.38.461,1.049,1.049,0,0,1-.993.1,1.055,1.055,0,0,1-.462-.381,1.053,1.053,0,0,1-.1-.993,1.056,1.056,0,0,1,.381-.462,1.038,1.038,0,0,1,.585-.179,1.049,1.049,0,0,1,.967,1.457Z" transform="translate(-150.724 -407.479)" fill="#232215"/>
  <path id="パス_35" data-name="パス 35" d="M366.692,438.946a2.6,2.6,0,1,0,.941,1.144A2.6,2.6,0,0,0,366.692,438.946Zm-.489,2.564a1.05,1.05,0,0,1-.381.461,1.047,1.047,0,0,1-.992.1,1.056,1.056,0,0,1-.462-.381,1.054,1.054,0,0,1-.1-.993,1.051,1.051,0,0,1,.381-.462,1.037,1.037,0,0,1,.585-.179,1.049,1.049,0,0,1,.966,1.457Z" transform="translate(-337.999 -407.479)" fill="#232215"/>
</svg>
