<svg xmlns="http://www.w3.org/2000/svg" width="110.798" height="407.622" viewBox="0 0 110.798 407.622">
  <g id="グループ_11" data-name="グループ 11" transform="translate(0 51.07)">
    <path id="パス_57" data-name="パス 57" d="M144.861,32.124c0,1.46-1.709,2.169-5.379,2.169a35.383,35.383,0,0,1-9.841-1.46c-4.17-1.46-6-3.878-6-8.089,0-1.71.458-4.086.791-4.086.251,0,.293.125.293,1.042,0,2.627.249,3.836,1.167,5,1.084,1.46,2.836,2,6.38,2,.75,0,.75,0,4.254-.166.75-.042,1.584-.084,2.043-.084a9.223,9.223,0,0,1,2.21.249c2.919,1.168,4.086,2.169,4.086,3.419M132.227,11.275A31.276,31.276,0,0,0,128.1,13.4c-.167.125-.25.166-.334.166a.11.11,0,0,1-.125-.125c0-.208.208-.458,1.752-2.085.417-.417,1-1,1.876-1.918a.629.629,0,0,0,.208-.417c0-.083-.041-.125-.208-.167a9.541,9.541,0,0,1-3.628-2.043,6.961,6.961,0,0,1-1.376-3.5c0-.292.084-.417.208-.417s.209.042.376.208c1.126,1.168,4.044,1.96,6.8,1.96.458,0,.5,0,2.294-.084.083,0,.458-.041.541-.041,2.335,0,4.3,1.584,4.3,3.419a2.076,2.076,0,0,1-2.085,2c-.709-.042-1.209-.083-1.626-.083a23.885,23.885,0,0,0-4.837,1" transform="translate(-41.61 -53.964)" fill="#fff"/>
    <path id="パス_58" data-name="パス 58" d="M145.32,95.657a19.231,19.231,0,0,1-3.878,3.252,26.887,26.887,0,0,1-6,2.961,60.265,60.265,0,0,1-5.962,1.709,20.337,20.337,0,0,1-3.545.584c-.167,0-.334-.084-.334-.209s.209-.208.417-.25a11.588,11.588,0,0,0,1.084-.417c1.085-.458,2.419-1.042,3.67-1.709a38.79,38.79,0,0,0,6.38-4.3c3.794-3.252,5.588-6.338,5.588-9.632,0-5.5-5.046-9.424-12.218-9.424a16.048,16.048,0,0,0-8.923,2.544c-2.836,1.835-4,3.67-4,6.3,0,2.919,1.46,6.3,2.753,6.3.333,0,.709-.167,1.376-.75a54.355,54.355,0,0,0,3.877-3.961c3.295-3.711,4.963-6.463,4.963-8.131a1.829,1.829,0,0,0-.542-1.46c-.083-.084-.125-.084-.125-.167a.191.191,0,0,1,.209-.167,4.643,4.643,0,0,1,1.667.626,4.326,4.326,0,0,1,2.419,3.419c.042.709-.75,2.168-2.252,4.128-.959,1.209-2,2.46-3.5,4.045-1,1.084-3.045,3.127-4.212,4.128-1.042.918-1.584,1.376-2.085,1.793-1.251,1.251-1.959,1.459-2.669,1.459a3,3,0,0,1-1.667-.583c-1.627-1.335-2.71-4.462-2.71-8.257a11.718,11.718,0,0,1,2.71-7.673c2.835-3.294,8.464-5.5,14.094-5.5a17.593,17.593,0,0,1,11.05,3.628c3.294,2.627,4.837,5.546,4.837,8.965a9.95,9.95,0,0,1-2.46,6.755" transform="translate(-38.734 -78.672)" fill="#fff"/>
    <path id="パス_59" data-name="パス 59" d="M141.475,158.451c.25-.292.458-.5.584-.667.918-1.043,1.168-1.252,1.543-1.252a10.485,10.485,0,0,1,3.795,1.919c1.209.792,1.585,1.209,1.585,1.668a.79.79,0,0,1-.417.585c-.584.416-.584.416-.918.667q-.188,6.693-.876,8.757c-.833,2.376-3.5,3.92-6.755,3.92-1,0-1.292-.251-1.752-1.543-.334-.875-.792-1.418-2.71-1.959-2.168-.626-2.252-.709-2.252-.918,0-.167.125-.209.292-.209.959.083,2.126.125,2.71.125,5.087,0,5.8-1.251,5.8-10.216H128.757c1.209.293,1.585.5,1.585.834s-.084.417-.793.709c-.249.124-.291.292-.291.833l-.042,5h4.337l-.042-3.5c0-.834,0-1.418-.041-1.96,0-.251.084-.334.375-.334.458,0,2.794.251,3.752.417,1.5.251,2.043.5,2.043,1,0,.376-.167.543-.917,1,0,.875,0,.875.041,2.544a9.638,9.638,0,0,1,.042,1.042c0,.793-.167,1.085-.793,1.377a8.009,8.009,0,0,1-3,.583c-1.126,0-1.5-.208-1.5-.916v-.292H118.959v1.917c0,.668-.125.96-.5,1.209a6.251,6.251,0,0,1-3.336.751c-1.251,0-1.668-.334-1.668-1.335,0-.249.084-2.419.084-4.67,0-2.711-.042-4.378-.042-4.629,0-.292.042-.292.5-.292a35.218,35.218,0,0,1,4.253.626c1.376.251,1.834.5,1.834,1,0,.375-.333.709-1.168,1.126v3.335h4.963l.042-5.879a13.9,13.9,0,0,0-.042-1.5h-2c-.334.667-1.71,1.126-3.461,1.126-1.292,0-1.71-.334-1.71-1.418,0-.209,0-.209.084-2.251.042-2.877.042-2.877.167-12.426,0-.5,0-1-.084-5.212v-.209c0-.417.125-.5.375-.5a16.579,16.579,0,0,1,2.794.5c1.752.417,2.252.667,2.544,1.251h1.71c.291-2,.416-3,.583-5.421,6.088.5,7.756.876,7.756,1.835,0,.625-.5.959-1.919,1.292-.959.751-1.376,1.085-1.793,1.377-.792.584-.792.584-1.251.918h7.839c.251-.293.542-.626.792-.918.792-1.043,1.126-1.377,1.5-1.377.626,0,2.585,1.126,4,2.252.792.626,1.084,1,1.084,1.459s-.292.751-1.376,1.292l.249,7.8a1.418,1.418,0,0,1-.666,1.376,6.252,6.252,0,0,1-3.253.835c-1.751,0-2.043-.209-2.043-1.377v-.709H121.918v3.419h19.307c.458-.5.458-.5,1.835-2.251.667-.835,1-1.127,1.375-1.127,1.085,0,4.253,2.71,4.253,3.628,0,.5-.417.709-1.334.709H121.918v3.252Zm-5.629-16.3c0-.835-.042-.918-.417-1.043h-12.76c-.709.251-.792.584-.792,3.253v.792h13.969Zm-13.969,3.961.041,3.795h13.928v-3.795Z" transform="translate(-38.183 -98.346)" fill="#fff"/>
    <path id="パス_60" data-name="パス 60" d="M117.26,227.761c.584-3.586,1.251-9.09,1.251-10.133a5.9,5.9,0,0,0-.876-3.586,2.857,2.857,0,0,1-.542-1.126.2.2,0,0,1,.209-.208c.208,0,.208,0,1.918.918,2.294,1.251,3.043,2.335,3.043,4.336a20.906,20.906,0,0,1-.583,4.462,63.185,63.185,0,0,0-1.209,11.009c.167,2.085.376,4.128.543,6.171,0,1.543-.793,2.5-2.043,2.5-1.127,0-1.919-.918-2.5-3.044a20.932,20.932,0,0,1-.625-4.421,1.324,1.324,0,0,1,.125-.583,7.992,7.992,0,0,0,.667-2.085ZM141.4,215.585c1.71.709,2.335,1.334,2.335,2.294a1.968,1.968,0,0,1-1.251,1.752,5.13,5.13,0,0,1-2.377.375,13.235,13.235,0,0,0-3.5,1.752c-.876.541-1.668,1-1.961,1.167a5.142,5.142,0,0,1-.458.25.592.592,0,0,1-.25.084c-.084,0-.167,0-.125-.125a.913.913,0,0,1,.208-.251,25.613,25.613,0,0,0,2.293-2.794,2.247,2.247,0,0,0,.334-.667c0-.084-.125-.084-.792-.084a7.327,7.327,0,0,1-2.5-.334,6.8,6.8,0,0,1-1.46-.834,15.884,15.884,0,0,1-1.793-1.5c-.417-.334-.5-.459-.5-.626a.267.267,0,0,1,.208-.208,3.286,3.286,0,0,1,.709.167,12.451,12.451,0,0,0,2.544.417,14.392,14.392,0,0,0,6.13-1.335,5.325,5.325,0,0,1,2.21.5m2.711,18.6a12.837,12.837,0,0,1,3.5,1.334,2.221,2.221,0,0,1,.876,1.668c0,1.5-2.168,2.294-3.711,2.294a23.134,23.134,0,0,1-7.881-1.209,8.889,8.889,0,0,1-5.67-4.837,7.749,7.749,0,0,1-.626-2.252c0-.25.125-.417.25-.417.167,0,.208.084.334.292,1.209,2.377,3.92,3.586,8.048,3.586a15.549,15.549,0,0,0,4.3-.541,1.757,1.757,0,0,1,.584.083" transform="translate(-38.987 -124.577)" fill="#fff"/>
    <path id="パス_61" data-name="パス 61" d="M119.636,303.985c.293-.626.751-1.876,1.669-4.212.084-.25,1.042-2.544,1.584-3.961.458-1.168.584-1.46.626-1.543s.084-.125.167-.125.167.042.167.125c0,.125-.25,1.084-.375,1.584s-.25.918-.542,2.043a44.633,44.633,0,0,0-1.376,9.633,2.532,2.532,0,0,0,.292,1.293,2.052,2.052,0,0,1,.125.625,1.783,1.783,0,0,1-1.919,1.543c-1.417,0-2.585-.918-3.419-2.669-.835-1.793-1.042-3.044-1.042-6.422a125.542,125.542,0,0,1,1.5-13.677,23.239,23.239,0,0,0,.208-2.835c0-2.336-.334-3.879-.918-4.629a.86.86,0,0,1-.208-.376c0-.125.125-.167.25-.167a3.212,3.212,0,0,1,1.793.959c2.168,1.627,3.169,2.877,3.169,4.045a9.418,9.418,0,0,1-.792,3.169,34.586,34.586,0,0,0-2.252,10.967,17.07,17.07,0,0,0,.334,3.545c.209.876.5,1.418.709,1.418.084,0,.125-.042.249-.334m7.131-11.925c-.584-.167-.709-.251-.709-.417,0-.125.083-.125.667-.292a23.026,23.026,0,0,0,5.087-2.21c.5-.292,1.418-.751,2.544-1.292,1.751-.876,2.46-1.251,3.753-1.877-.042-1.167-.084-2.168-.125-3.044-.084-1.376-.209-3.044-.334-3.752-.25-1.293-.793-1.585-1.585-1.585a4.676,4.676,0,0,0-1,.125,2.387,2.387,0,0,1-.5.042c-.125,0-.208-.042-.208-.167,0-.083.125-.25.376-.458a3.323,3.323,0,0,1,2.5-1.126,6.634,6.634,0,0,1,3,.709,2.2,2.2,0,0,1,1.334,2.335c0,.5-.041.959-.041,1.418v3.586a2.076,2.076,0,0,1,1.083-.375,8.943,8.943,0,0,1,1.377.125c.75.125,1.918.25,2.377.292,1.251.125,1.834.458,1.834,1.209a1.824,1.824,0,0,1-2,1.71c-.083,0-.083,0-1.209-.042a6.317,6.317,0,0,0-3.044.834c.042,1.668.083,3.169.125,4.837.125,2.835.125,4.712.125,6a19.25,19.25,0,0,1-.208,3.336,21.552,21.552,0,0,1,4.962,2.669c1.543,1.125,2.335,2.252,2.335,3.419a1.923,1.923,0,0,1-2.043,1.751c-1.125,0-1.709-.334-2.836-1.584a23.777,23.777,0,0,0-3.461-3.086c-2,2.877-3.587,3.836-6.421,3.836a6.234,6.234,0,0,1-4.337-1.418,4.634,4.634,0,0,1-1.5-2.877c0-1.168,1.376-2.376,3.211-2.96a16.144,16.144,0,0,1,4.587-.584,14.88,14.88,0,0,1,2.168.167c.084-1.042.125-1.584.125-2.418,0-.667-.041-2.085-.125-3.836-.083-1.877-.208-4.129-.334-6.213-.834.375-1.543.667-3.086,1.418a17.764,17.764,0,0,0-3.044,1.668,3.567,3.567,0,0,1-2.168.834,12.274,12.274,0,0,1-2.585-.5Zm7.589,10.716c-2.751,0-4.712.876-4.712,2.043,0,.876,1.334,1.626,2.877,1.626a6.624,6.624,0,0,0,3.045-.792,6.072,6.072,0,0,0,2.335-2.21,8.666,8.666,0,0,0-3.545-.667" transform="translate(-38.903 -145.88)" fill="#fff"/>
    <path id="パス_62" data-name="パス 62" d="M158.314,354.508c-1.418,0-2.21-.709-2.752-2.419-1-3-2.46-5.128-4.462-6.38-.292-.167-.376-.292-.376-.417,0-.208.167-.334.542-.334A18.14,18.14,0,0,1,156.313,346c3.128,1.126,4.962,3.128,4.962,5.337a3.023,3.023,0,0,1-2.96,3.169" transform="translate(-50.727 -169.086)" fill="#fff"/>
    <path id="パス_63" data-name="パス 63" d="M41.55,0V15.762H34.295v-8.3H8.233V0ZM9.985,5.67H36.045v8.3H39.8V1.793H9.985Z" transform="translate(-2.771)" fill="#fff"/>
    <path id="パス_64" data-name="パス 64" d="M3.712,63.64c1.5.042,1.5.042,2.627.042a123.953,123.953,0,0,0,6.881-18.264c4.044,1.168,6.463,2.544,6.463,3.753,0,.626-.333.959-1.793,1.5-4,5.963-5.88,8.715-9.007,12.968a51.93,51.93,0,0,0,6.254-.376c-.041-.125-.041-.125-.25-.709a15.949,15.949,0,0,0-1.751-3.586.818.818,0,0,1-.167-.334c0-.084.083-.125.208-.125a6.037,6.037,0,0,1,1.043.292,15.158,15.158,0,0,1,5.212,3,5.372,5.372,0,0,1,2.127,4.044A3.285,3.285,0,0,1,18.1,69.4a2.2,2.2,0,0,1-1.751-.709c-.417-.5-.543-.876-.709-2.585a9.588,9.588,0,0,0-.208-1.459c-.209.125-.376.208-.709.375-6.13,2.752-6.13,2.752-9.549,4.045C4.087,69.812,3.545,70.1,3,70.1c-.751,0-1.042-.5-1.668-2.5C.292,64.266.251,64.058.251,63.808c0-.209.084-.251.458-.251Zm9.382-23.434c-.709.917-.709.917-2.961,4.086-.792,1.084-2.752,3.586-3.21,4.045a5.12,5.12,0,0,1,3,4.17,3.326,3.326,0,0,1-3.169,3.252A2.939,2.939,0,0,1,4.38,54.592,7.573,7.573,0,0,1,3.8,52.215a10.287,10.287,0,0,0-2.669-5.087c-.251-.208-.334-.292-.334-.417,0-.084.125-.167.292-.167A16.256,16.256,0,0,1,3,46.794a11.8,11.8,0,0,1,2.085.626A80.444,80.444,0,0,0,7.8,35.077c4.92,1.209,7.214,2.377,7.214,3.628,0,.667-.584,1.126-1.918,1.5m16.179-.042c1.585-1.96,2.294-2.585,2.919-2.585,1.46,0,5.421,3.044,5.421,4.17,0,.543,0,.543-1.209,1.71.208,5,.208,5,.208,11.967,0,7.715-.834,12.259-2.794,14.845a7.045,7.045,0,0,1-5.254,2.711c-1.543,0-1.918-.292-2.169-1.751-.125-.959-1-1.876-3.21-3.419-.334-.25-.417-.334-.417-.458a.221.221,0,0,1,.25-.25,4.006,4.006,0,0,1,.5.084,13.888,13.888,0,0,0,2.376.249c2.085,0,3-.417,3.67-1.626,1.168-2.043,1.543-6.422,1.543-17.972,0-2.085-.125-4.586-.25-5.8a.844.844,0,0,0-.876-.834l-9.757.334a28.412,28.412,0,0,0-3.752.25c-.876-.918-.918-1-.918-1.084a.3.3,0,0,1,.334-.292c.918.042,2.043.084,2.627.084Z" transform="translate(-0.084 -11.805)" fill="#fff"/>
    <path id="パス_65" data-name="パス 65" d="M35.322,133.371a19.232,19.232,0,0,1-3.878,3.252,26.887,26.887,0,0,1-6,2.961,60.26,60.26,0,0,1-5.962,1.709,20.336,20.336,0,0,1-3.545.584c-.167,0-.334-.084-.334-.209s.209-.208.417-.25A11.589,11.589,0,0,0,17.1,141c1.085-.458,2.419-1.042,3.67-1.709a38.787,38.787,0,0,0,6.38-4.3c3.794-3.252,5.588-6.338,5.588-9.632,0-5.5-5.046-9.424-12.218-9.424a16.048,16.048,0,0,0-8.923,2.544c-2.836,1.835-4,3.67-4,6.3,0,2.919,1.46,6.3,2.753,6.3.333,0,.709-.167,1.376-.75a54.363,54.363,0,0,0,3.877-3.961c3.295-3.711,4.963-6.463,4.963-8.131a1.829,1.829,0,0,0-.542-1.46c-.083-.084-.125-.084-.125-.167a.191.191,0,0,1,.209-.167,4.644,4.644,0,0,1,1.667.626,4.326,4.326,0,0,1,2.419,3.419c.042.709-.75,2.168-2.252,4.128-.959,1.209-2,2.46-3.5,4.045-1,1.084-3.045,3.128-4.212,4.128-1.042.918-1.584,1.376-2.085,1.793-1.251,1.251-1.959,1.459-2.669,1.459a3,3,0,0,1-1.667-.583c-1.627-1.335-2.71-4.462-2.71-8.257a11.718,11.718,0,0,1,2.71-7.673c2.835-3.294,8.464-5.5,14.094-5.5a17.593,17.593,0,0,1,11.05,3.628c3.294,2.627,4.837,5.546,4.837,8.965a9.95,9.95,0,0,1-2.46,6.755" transform="translate(-1.713 -38.375)" fill="#fff"/>
    <path id="パス_66" data-name="パス 66" d="M30.731,194.27c.876-1.334,1.752-2.585,2.127-3.086.75-1,1.168-1.209,1.5-1.209a5.692,5.692,0,0,1,2.71,1.669c1.042,1,1.918,2.252,1.918,2.877a.88.88,0,0,1-.917.792H22.933c0,1.293.167,8.8.209,10.133.041,1.292.083,2.544.083,3.253a1.622,1.622,0,0,1-.833,1.668,6.531,6.531,0,0,1-3.295.918c-1.418,0-2.169-.376-2.169-1.335,0-.292,0-.292.042-1.209.125-2.544.291-6.547.375-13.428H3.711a22.79,22.79,0,0,0-2.919.167C.041,194.52,0,194.436,0,194.353a.3.3,0,0,1,.333-.292,18.939,18.939,0,0,0,2.377.208H17.346c.042-2,.042-3.5.042-5.254V184.3H10.966c-.084.167-.375.792-.834,1.584a27.087,27.087,0,0,1-4.754,5.755c-1.418,1.334-2.294,2-2.585,2a.2.2,0,0,1-.209-.209c0-.125.084-.25.334-.667,2.21-3.753,3.461-9.424,4.378-18.556a36.6,36.6,0,0,1,5.963,1.46c1.084.334,1.626.792,1.626,1.334,0,.584-.292.792-1.71,1.334a42.734,42.734,0,0,1-1.835,4.962h6.047l-.208-10.424c0-.292.083-.334.334-.334a38.245,38.245,0,0,1,5.8,1c.751.209,1.21.626,1.21,1.084,0,.542-.334.834-1.585,1.46L22.85,183.3H27.4c.417-.625.75-1.168,1.876-2.71.584-.834,1.084-1.251,1.626-1.251.584,0,1.418.583,2.71,1.793,1.085,1.042,1.543,1.835,1.543,2.419,0,.542-.417.75-1.46.75H22.85v3.628c.042,2.96.042,4.212.083,6.338Z" transform="translate(0 -58.071)" fill="#fff"/>
    <path id="パス_67" data-name="パス 67" d="M0,257.385V241.623H7.255v8.3H33.317v7.464Zm31.565-5.671H5.5v-8.3H1.752v12.176H31.565Z" transform="translate(0 -81.319)" fill="#fff"/>
    <path id="パス_68" data-name="パス 68" d="M20.035,325.078A4.389,4.389,0,0,1,23,326.162c1.334,1.251,1.834,3.044,1.834,6.463a17.967,17.967,0,0,1-2.294,9.382,7.107,7.107,0,0,1-1.626,1.751,4.091,4.091,0,0,1-2.46.918,2.9,2.9,0,0,1-1.459-.334,1.785,1.785,0,0,1-.626-.625c-.167-.291-.376-.625-.459-.75-.167-.251-.416-.542-.667-.876-.709-.918-1.251-1.626-1.626-2.21a3.432,3.432,0,0,1-.542-.959.11.11,0,0,1,.125-.125,1.742,1.742,0,0,1,.543.291,8.626,8.626,0,0,0,3.46.959c1.627,0,2.252-.5,3.045-2.5a26.658,26.658,0,0,0,1.376-8.882c0-1.46-.333-1.918-1.418-1.918a5.272,5.272,0,0,0-2.335.709c-.625,1.292-.959,2-1.71,3.752-.791,2.085-1.5,3.628-3.044,6.922-.958,1.96-1.376,2.836-1.709,3.628-.292.667-.542,1.251-1,2.377-.667,1.5-1.71,2.376-2.919,2.376-.876,0-1.376-.625-1.376-1.793a8.6,8.6,0,0,1,.334-2.169,4.4,4.4,0,0,1,1.042-1.71,63.9,63.9,0,0,0,4.086-6.38,37.914,37.914,0,0,0,3.169-6.046C9.944,330.748,9.36,331,8.944,331s-.667-.125-1.543-.834c-.376-.292-.792-.625-1.46-1.209-1-.918-1.668-1.793-1.668-2.377,0-.125.084-.292.208-.292.084,0,.084.042.167.084a8.869,8.869,0,0,0,3.21.75A39.9,39.9,0,0,0,15.7,325.37a23.979,23.979,0,0,0,1.543-5.671,1.544,1.544,0,0,0-1-1.5,3.852,3.852,0,0,0-1.376-.375c-.167,0-.25-.042-.25-.125,0-.125.375-.334.918-.542a5.843,5.843,0,0,1,1.876-.459c1.585,0,3.961,1.877,3.961,3.128,0,.5-.042.626-.667,1.668a28.891,28.891,0,0,0-1.877,3.711,5.071,5.071,0,0,1,1.209-.125M30.96,319.7A1.25,1.25,0,0,1,30,319.24c-.125-.167-.125-.167-.375-1.042a6.623,6.623,0,0,0-2.127-3.336.229.229,0,0,1-.125-.208c0-.125.084-.167.25-.167,2.419,0,4.879,1.71,4.879,3.461A1.6,1.6,0,0,1,30.96,319.7m-.918,12.593c.334-.208.584-.334.876-.542a8.854,8.854,0,0,0,1.668-1.418,2.287,2.287,0,0,0,.751-1.71c0-1.668-.835-2.752-3.17-4.045-.208-.125-1.251-.667-1.5-.75s-.459-.208-.125-.292a7.6,7.6,0,0,1,1.168-.083,12.138,12.138,0,0,1,4.962,1.125c2.71,1.293,4.879,4.129,4.879,6.255A1.667,1.667,0,0,1,37.8,332.5a5.747,5.747,0,0,1-2.126-.5,2.578,2.578,0,0,0-.667-.167,9.557,9.557,0,0,0-2.085.291c-.417.084-1.21.209-1.919.293-.291.041-.875.125-.959.125-.125,0-.209-.125,0-.25m3.836-15.97A6.317,6.317,0,0,0,31,313.485q-.25-.124-.25-.25c0-.125.209-.208.626-.208,3.378,0,5.42,1.084,5.42,2.96a1.587,1.587,0,0,1-1.667,1.71c-.667,0-.709-.042-1.251-1.376" transform="translate(-1.438 -105.35)" fill="#fff"/>
    <path id="パス_69" data-name="パス 69" d="M14.48,417.392c-2.627,0-5.463-2.043-7.965-5.754A23.042,23.042,0,0,1,2.8,402.506a29.48,29.48,0,0,1-.541-4.754q0-.876.25-.876c.208,0,.25.167.541.959A40.512,40.512,0,0,0,6.266,404.3c2.627,4.212,4.629,6.3,6.13,6.3.876,0,1.46-.584,3.837-3.961.5-.626.625-.75.75-.75.084,0,.125.042.125.167a11.285,11.285,0,0,1-.458,1.542,14.8,14.8,0,0,0-.959,4.628,4.993,4.993,0,0,0,.751,2.585c.375.626.375.667.375.834,0,.876-1.126,1.751-2.335,1.751M36.2,401.672a7.771,7.771,0,0,1,2.252,5.171c0,1.793-1,3.044-2.5,3.044a1.488,1.488,0,0,1-1-.293c-.125-.083-.125-.083-.959-.541a3.562,3.562,0,0,0-2-.458,11.711,11.711,0,0,0-2.877.417,2.4,2.4,0,0,1-.417.084.233.233,0,0,1-.25-.209c0-.125.084-.208.417-.417,2.335-1.376,3.878-2.919,3.878-3.92,0-1.042-.959-2.46-2.71-4a16.1,16.1,0,0,0-2.585-1.793c-.334-.209-.459-.293-.459-.417,0-.167.167-.25.542-.25a12.316,12.316,0,0,1,8.673,3.586" transform="translate(-0.762 -133.57)" fill="#fff"/>
    <path id="パス_70" data-name="パス 70" d="M19.847,470.759a17.39,17.39,0,0,1,7.339-1.793c5.254,0,9.048,3.128,9.048,7.422,0,5.838-6.338,11.05-13.427,11.05a8.445,8.445,0,0,1-3.669-.709,4.338,4.338,0,0,1,2.043-8.34,5.389,5.389,0,0,1,5.629,4.086c3.461-2.085,5.171-4.67,5.171-7.8,0-2.794-1.793-4.5-4.712-4.5a12.267,12.267,0,0,0-8.464,3.878,18.952,18.952,0,0,0-2.335,3.794,2.624,2.624,0,0,1-2.043,1.627,1.827,1.827,0,0,1-1.793-2.043,15.749,15.749,0,0,1,.208-2.377c.208-1.126.333-1.418.834-1.71,1.752-1.293,3.21-3.169,5.713-7.3,2.335-3.878,2.877-4.837,2.877-5.171,0-.084-.042-.084-.125-.084-.334,0-1.042.459-2.961,2.127A4.456,4.456,0,0,1,16.594,464c-1.084,0-2.21-1.209-3-3.252a7.954,7.954,0,0,1-.584-2.376c0-.125.042-.251.125-.251.125,0,.208.084.584.417a3.869,3.869,0,0,0,2.668,1.251,7.2,7.2,0,0,0,2.711-.751,39.155,39.155,0,0,0,4.628-3.378c.792-.792,1.042-.959,1.793-.959,2.043,0,3.752,1.083,3.752,2.418,0,.417-.167.625-.959,1.5a63.036,63.036,0,0,0-9.049,12.3,1.544,1.544,0,0,0,.584-.167m-.084,9.257a2.568,2.568,0,0,0-2.252,2.5c0,1.293,1.209,2.127,3.127,2.127.376,0,.75-.042,1.168-.084a4.491,4.491,0,0,0,1.71-.417c-.167-2.377-1.751-4.129-3.753-4.129" transform="translate(-4.252 -153.033)" fill="#fff"/>
    <path id="パス_71" data-name="パス 71" d="M51.841,526.523a5.4,5.4,0,1,1-5.379-5.379,5.4,5.4,0,0,1,5.379,5.379m-9.049,0a3.649,3.649,0,1,0,3.67-3.628,3.648,3.648,0,0,0-3.67,3.628" transform="translate(-13.812 -175.392)" fill="#fff"/>
  </g>
</svg>
