<?xml version="1.0" encoding="utf-8"?>
<!-- Generator: Adobe Illustrator 27.4.0, SVG Export Plug-In . SVG Version: 6.00 Build 0)  -->
<svg version="1.1" id="レイヤー_1" xmlns="http://www.w3.org/2000/svg" xmlns:xlink="http://www.w3.org/1999/xlink" x="0px"
	 y="0px" viewBox="0 0 56 54" style="enable-background:new 0 0 56 54;" xml:space="preserve">
<style type="text/css">
	.st0{enable-background:new    ;}
	.st1{fill:none;stroke:#232215;}
</style>
<g class="st0">
	<path class="st1" d="M24.1,22c1,1.2,1.7,2.5,2.1,4.1c0.5,1.5,0.7,3.2,0.7,4.9c0,2-0.3,3.9-0.9,5.5c-0.6,1.6-1.4,2.9-2.4,4
		c-1,1.1-2.3,1.9-3.7,2.5s-3,0.8-4.8,0.8c-1.9,0-3.7-0.3-5.2-1c-1.5-0.6-2.7-1.5-3.7-2.7c-1-1.2-1.7-2.5-2.2-4.1
		c-0.5-1.6-0.7-3.3-0.7-5.1c0-1.8,0.2-3.4,0.7-4.9s1.2-2.9,2.2-4.1c1-1.2,2.2-2.1,3.7-2.8c1.5-0.7,3.2-1,5.2-1c2.1,0,3.8,0.3,5.3,1
		C21.9,19.9,23.1,20.8,24.1,22z M22,30.9c0-3.6-0.6-6.3-1.8-8.3c-1.2-2-2.9-2.9-5-2.9c-2.1,0-3.8,1-5,2.9c-1.2,2-1.8,4.7-1.8,8.3
		c0,3.4,0.6,6.1,1.8,8.2c1.2,2.1,2.9,3.1,5.1,3.1s3.9-1,5.1-3.1C21.4,37,22,34.3,22,30.9z"/>
	<path class="st1" d="M40.2,51.2c-1.4,0-2.7-0.2-3.9-0.5c-1.2-0.4-2.2-0.8-3-1.4c-0.8-0.6-1.5-1.3-1.9-2.1s-0.7-1.6-0.7-2.4
		c0-0.7,0.2-1.4,0.5-2c0.4-0.6,0.9-0.9,1.7-0.9c0.9,0,1.6,0.2,2.1,0.7c0.5,0.4,0.7,0.9,0.7,1.5c0,0.5-0.1,1.1-0.2,1.8
		c-0.2,0.7-0.3,1.3-0.4,1.6c0.1,0.1,0.3,0.3,0.6,0.5s0.6,0.4,1,0.6c0.5,0.2,1,0.4,1.5,0.5s1.3,0.2,2.2,0.2c0.9,0,1.8-0.1,2.6-0.4
		s1.6-0.8,2.2-1.4c0.7-0.7,1.2-1.5,1.5-2.4c0.4-0.9,0.6-2.1,0.6-3.6c0-0.8-0.1-1.6-0.3-2.4s-0.5-1.5-1-2.1s-1.1-1-1.9-1.4
		c-0.8-0.3-1.8-0.5-3.1-0.5h-2.9v-2.6h2c2.1,0,3.6-0.6,4.5-1.7S46,28,46,25.7c0-1.9-0.4-3.3-1.3-4.2c-0.9-1-2.1-1.4-3.8-1.4
		c-0.8,0-1.4,0.1-1.9,0.3c-0.5,0.2-0.9,0.4-1.2,0.6c-0.4,0.2-0.7,0.4-0.9,0.7c-0.2,0.3-0.4,0.4-0.5,0.6c0.1,0.5,0.2,1.1,0.4,1.8
		c0.1,0.7,0.2,1.4,0.2,2c0,0.6-0.2,1.1-0.7,1.5C35.7,27.8,35,28,34.1,28c-0.8,0-1.4-0.3-1.7-0.9s-0.5-1.2-0.5-2
		c0-0.8,0.2-1.6,0.7-2.4c0.4-0.8,1.1-1.6,1.9-2.3s1.9-1.3,3.1-1.7s2.6-0.7,4.2-0.7c1.8,0,3.4,0.3,4.6,0.8c1.2,0.5,2.2,1.2,2.8,2
		c0.7,0.8,1.1,1.6,1.4,2.4c0.3,0.8,0.4,1.6,0.4,2.2c0,0.7-0.1,1.5-0.3,2.3c-0.2,0.8-0.6,1.5-1,2.1c-0.5,0.7-1.2,1.3-2.1,1.9
		c-0.9,0.6-1.9,1-3.2,1.4v0.4c0.8,0.1,1.7,0.3,2.7,0.6s1.8,0.7,2.6,1.3c0.8,0.6,1.4,1.4,2,2.4c0.5,1,0.8,2.2,0.8,3.7
		c0,2.9-1.2,5.2-3.5,7C46.5,50.3,43.6,51.2,40.2,51.2z"/>
</g>
</svg>
