<?xml version="1.0" encoding="utf-8"?>
<!-- Generator: Adobe Illustrator 27.4.0, SVG Export Plug-In . SVG Version: 6.00 Build 0)  -->
<svg version="1.1" id="レイヤー_1" xmlns="http://www.w3.org/2000/svg" xmlns:xlink="http://www.w3.org/1999/xlink" x="0px"
	 y="0px" viewBox="0 0 57 54" style="enable-background:new 0 0 57 54;" xml:space="preserve">
<style type="text/css">
	.st0{enable-background:new    ;}
	.st1{fill:none;stroke:#232215;}
</style>
<g class="st0">
	<path class="st1" d="M24.1,22c1,1.2,1.7,2.5,2.1,4.1c0.5,1.5,0.7,3.2,0.7,4.9c0,2-0.3,3.9-0.9,5.5c-0.6,1.6-1.4,2.9-2.4,4
		c-1,1.1-2.3,1.9-3.7,2.5s-3,0.8-4.8,0.8c-1.9,0-3.7-0.3-5.2-1c-1.5-0.6-2.7-1.5-3.7-2.7c-1-1.2-1.7-2.5-2.2-4.1
		c-0.5-1.6-0.7-3.3-0.7-5.1c0-1.8,0.2-3.4,0.7-4.9s1.2-2.9,2.2-4.1c1-1.2,2.2-2.1,3.7-2.8c1.5-0.7,3.2-1,5.2-1c2.1,0,3.8,0.3,5.3,1
		C21.9,19.9,23.1,20.8,24.1,22z M22,30.9c0-3.6-0.6-6.3-1.8-8.3c-1.2-2-2.9-2.9-5-2.9c-2.1,0-3.8,1-5,2.9c-1.2,2-1.8,4.7-1.8,8.3
		c0,3.4,0.6,6.1,1.8,8.2c1.2,2.1,2.9,3.1,5.1,3.1s3.9-1,5.1-3.1C21.4,37,22,34.3,22,30.9z"/>
	<path class="st1" d="M53.6,41H49v10.2h-4.3V41H30.3v-3.5l15.7-19.2H49V38h4.6V41z M44.7,38V23.3L32.6,38H44.7z"/>
</g>
</svg>
